<svg xmlns="http://www.w3.org/2000/svg" width="38.042" height="38.042" viewBox="0 0 38.042 38.042"><defs><style>.a{fill:none;}.b{fill:#ddc6e7;}</style></defs><path class="a" d="M0,0H38.042V38.042H0Z"/><path class="b" d="M26.68,3a10.048,10.048,0,0,0-7.659,3.689A10.048,10.048,0,0,0,11.362,3,9.447,9.447,0,0,0,2,12.709c0,6.673,5.787,12.109,14.553,20.371l2.468,2.312,2.468-2.33c8.766-8.244,14.553-13.681,14.553-20.353A9.447,9.447,0,0,0,26.68,3ZM19.191,30.449l-.17.177-.17-.177C10.749,22.841,5.4,17.81,5.4,12.709A5.928,5.928,0,0,1,11.362,6.53,6.655,6.655,0,0,1,17.438,10.7h3.183A6.614,6.614,0,0,1,26.68,6.53a5.928,5.928,0,0,1,5.957,6.178C32.638,17.81,27.293,22.841,19.191,30.449Z" transform="translate(0 0)"/></svg>