<svg xmlns="http://www.w3.org/2000/svg" width="56" height="56" viewBox="0 0 56 56"><defs><style>.a{fill:#223127;fill-rule:evenodd;}</style></defs><path class="a" d="M28,4.978c7.467,0,8.4,0,11.2.311a14.43,14.43,0,0,1,5.289.933,10.926,10.926,0,0,1,5.289,5.289,14.43,14.43,0,0,1,.933,5.289c0,2.8.311,3.733.311,11.2s0,8.4-.311,11.2a14.43,14.43,0,0,1-.933,5.289,10.926,10.926,0,0,1-5.289,5.289,14.43,14.43,0,0,1-5.289.933c-2.8,0-3.733.311-11.2.311s-8.4,0-11.2-.311a14.43,14.43,0,0,1-5.289-.933,10.926,10.926,0,0,1-5.289-5.289A14.43,14.43,0,0,1,5.289,39.2c0-2.8-.311-3.733-.311-11.2s0-8.4.311-11.2a14.43,14.43,0,0,1,.933-5.289A11.174,11.174,0,0,1,8.4,8.4a5.26,5.26,0,0,1,3.111-2.178A14.43,14.43,0,0,1,16.8,5.289c2.8-.311,3.733-.311,11.2-.311M28,0c-7.467,0-8.711,0-11.511.311A19.207,19.207,0,0,0,9.644,1.556,12.179,12.179,0,0,0,4.667,4.667,12.179,12.179,0,0,0,1.556,9.644C.622,11.511.311,13.378.311,16.489,0,19.289,0,20.533,0,28s0,8.711.311,11.511a19.207,19.207,0,0,0,1.244,6.844,12.179,12.179,0,0,0,3.111,4.978,12.179,12.179,0,0,0,4.978,3.111,19.207,19.207,0,0,0,6.844,1.244C19.289,56,20.533,56,28,56s8.711,0,11.511-.311a19.207,19.207,0,0,0,6.844-1.244,13.053,13.053,0,0,0,8.089-8.089,19.207,19.207,0,0,0,1.244-6.844C55.689,36.4,56,35.467,56,28s0-8.711-.311-11.511a19.207,19.207,0,0,0-1.244-6.844,12.179,12.179,0,0,0-3.111-4.978,12.179,12.179,0,0,0-4.978-3.111A19.207,19.207,0,0,0,39.511.311C36.711,0,35.467,0,28,0m0,13.689A14.081,14.081,0,0,0,13.689,28,14.311,14.311,0,1,0,28,13.689m0,23.644A9.167,9.167,0,0,1,18.667,28,9.167,9.167,0,0,1,28,18.667,9.167,9.167,0,0,1,37.333,28,9.167,9.167,0,0,1,28,37.333M42.933,9.644a3.422,3.422,0,1,0,3.422,3.422,3.453,3.453,0,0,0-3.422-3.422"/></svg>