<svg xmlns="http://www.w3.org/2000/svg" width="13.714" height="16" viewBox="0 0 13.714 16"><defs><style>.a{fill:#fff;}</style></defs><g transform="translate(-67.428 -36.001)"><g transform="translate(67.428 36.001)"><path class="a" d="M81.142,47.287c-.063.384-.491,3.929-.554,4.714-4.21-.154-7.853-.169-13.161,0V51.09c1.623-.32,2.165-.287,2.179-1.259.064-2.583.126-8.719,0-11.5-.037-1.016-.433-.956-2.179-1.286v-.911A109.17,109.17,0,0,0,80.392,36c-.125,1.366-.277,4.518-.277,4.518h-.83c-.395-1.53-.67-3.232-1.955-3.232H72.437c-.366,0-.384.125-.384.348v5.848c2.071.018,3.161-.089,3.161-.089,1.063-.034.984-.3,1.455-2.33h.92a46.838,46.838,0,0,0-.063,5.723h-.92c-.327-1.432-.324-2.18-1.411-2.2,0,0-.768-.071-3.143-.071v4.964c0,.929.509,1.366,1.58,1.366h3.188c2.273,0,2.377-.893,3.527-3.562h.795Z" transform="translate(-67.428 -36.001)"/></g></g></svg>