<svg id="Layer_1" data-name="Layer 1" xmlns="http://www.w3.org/2000/svg" viewBox="0 0 118.58 128.66"><defs><style>.cls-1{fill:#90a283;}.cls-2{fill:#f8faf9;}.cls-3{fill:none;stroke:#fff;stroke-miterlimit:10;}</style></defs><circle class="cls-1" cx="58.6" cy="63.34" r="55.67"/><path class="cls-2" d="M58.52,70.86c-1.75,2.32-3,5-5,7.17S49.2,82,46,82.23c-4.64.29-7.11-1.65-7.6-6.28a42.53,42.53,0,0,1-.08-7.57c.38-5.39.59-10.78.68-16.18.06-3.75,4.57-9,8.21-9.66,2-.38,2.8.63,2.78,2.44a21.27,21.27,0,0,1-1,6.42c-2.26,7-2.63,14.17-2.45,21.42,0,1.13.15,2.45,1.31,3s2.36-.33,3.28-1.12A25.09,25.09,0,0,0,55.7,69c3.63-5.55,5.11-11.73,5.49-18.26.24-4.14,3.38-6.12,6.44-7.92,1.85-1.09,2.66.53,3,2.11.53,2.66-.21,5.24-1,7.69-2.27,7-2,14.26-2,21.47,0,.68-.11,1.51.76,1.75s1.33-.35,1.81-.85a39.46,39.46,0,0,0,6.45-9.47c1.72-3.32,3.27-6.73,5-10.06.35-.69.7-1.91,1.83-1.41,1,.43.71,1.59.46,2.35-3,8.8-6.63,17.26-13.29,24-2.41,2.43-6.9,2.52-9.7.65a3.51,3.51,0,0,1-1.55-3.13c0-2.25,0-4.5,0-6.75Z"/><circle class="cls-3" cx="59.29" cy="62.35" r="44.59"/></svg>